<?xml version="1.0" encoding="utf-8" standalone="no"?>
<!DOCTYPE svg PUBLIC "-//W3C//DTD SVG 1.1//EN"
  "http://www.w3.org/Graphics/SVG/1.1/DTD/svg11.dtd">
<svg height="513.36pt" version="1.1" viewBox="0 0 1036.8 513.36" width="1036.8pt" xmlns="http://www.w3.org/2000/svg" xmlns:xlink="http://www.w3.org/1999/xlink">
 <metadata>
  <rdf:RDF xmlns:cc="http://creativecommons.org/ns#" xmlns:dc="http://purl.org/dc/elements/1.1/" xmlns:rdf="http://www.w3.org/1999/02/22-rdf-syntax-ns#">
   <cc:Work>
    <dc:type rdf:resource="http://purl.org/dc/dcmitype/StillImage"/>
    <dc:date>2022-05-01T14:33:50.467156</dc:date>
    <dc:format>image/svg+xml</dc:format>
    <dc:creator>
     <cc:Agent>
      <dc:title>Matplotlib v3.4.3, https://matplotlib.org/</dc:title>
     </cc:Agent>
    </dc:creator>
   </cc:Work>
  </rdf:RDF>
 </metadata>
 <defs>
  <style type="text/css">*{stroke-linecap:butt;stroke-linejoin:round;}</style>
 </defs>
 <g id="figure_1">
  <g id="patch_1">
   <path d="M 0 513.36 
L 1036.8 513.36 
L 1036.8 0 
L 0 0 
z
" style="fill:#ffffff;"/>
  </g>
  <g id="axes_1">
   <g id="patch_2">
    <path d="M 129.6 456.8904 
L 933.12 456.8904 
L 933.12 61.6032 
L 129.6 61.6032 
z
" style="fill:#ffffff;"/>
   </g>
   <g id="matplotlib.axis_1">
    <g id="xtick_1">
     <g id="line2d_1">
      <defs>
       <path d="M 0 0 
L 0 3.5 
" id="m6862190965" style="stroke:#000000;stroke-width:0.8;"/>
      </defs>
      <g>
       <use style="stroke:#000000;stroke-width:0.8;" x="166.123636" xlink:href="#m6862190965" y="456.8904"/>
      </g>
     </g>
     <g id="text_1">
      <!-- 0 -->
      <g transform="translate(160.905277 475.288056)scale(0.15 -0.15)">
       <defs>
        <path d="M 2944 2338 
Q 2944 3213 2780 3570 
Q 2616 3928 2228 3928 
Q 1841 3928 1675 3570 
Q 1509 3213 1509 2338 
Q 1509 1453 1675 1090 
Q 1841 728 2228 728 
Q 2613 728 2778 1090 
Q 2944 1453 2944 2338 
z
M 4147 2328 
Q 4147 1169 3647 539 
Q 3147 -91 2228 -91 
Q 1306 -91 806 539 
Q 306 1169 306 2328 
Q 306 3491 806 4120 
Q 1306 4750 2228 4750 
Q 3147 4750 3647 4120 
Q 4147 3491 4147 2328 
z
" id="DejaVuSans-Bold-30" transform="scale(0.015625)"/>
       </defs>
       <use xlink:href="#DejaVuSans-Bold-30"/>
      </g>
     </g>
    </g>
    <g id="xtick_2">
     <g id="line2d_2">
      <g>
       <use style="stroke:#000000;stroke-width:0.8;" x="340.045714" xlink:href="#m6862190965" y="456.8904"/>
      </g>
     </g>
     <g id="text_2">
      <!-- 20 -->
      <g transform="translate(329.608996 475.288056)scale(0.15 -0.15)">
       <defs>
        <path d="M 1844 884 
L 3897 884 
L 3897 0 
L 506 0 
L 506 884 
L 2209 2388 
Q 2438 2594 2547 2791 
Q 2656 2988 2656 3200 
Q 2656 3528 2436 3728 
Q 2216 3928 1850 3928 
Q 1569 3928 1234 3808 
Q 900 3688 519 3450 
L 519 4475 
Q 925 4609 1322 4679 
Q 1719 4750 2100 4750 
Q 2938 4750 3402 4381 
Q 3866 4013 3866 3353 
Q 3866 2972 3669 2642 
Q 3472 2313 2841 1759 
L 1844 884 
z
" id="DejaVuSans-Bold-32" transform="scale(0.015625)"/>
       </defs>
       <use xlink:href="#DejaVuSans-Bold-32"/>
       <use x="69.580078" xlink:href="#DejaVuSans-Bold-30"/>
      </g>
     </g>
    </g>
    <g id="xtick_3">
     <g id="line2d_3">
      <g>
       <use style="stroke:#000000;stroke-width:0.8;" x="513.967792" xlink:href="#m6862190965" y="456.8904"/>
      </g>
     </g>
     <g id="text_3">
      <!-- 40 -->
      <g transform="translate(503.531073 475.288056)scale(0.15 -0.15)">
       <defs>
        <path d="M 2356 3675 
L 1038 1722 
L 2356 1722 
L 2356 3675 
z
M 2156 4666 
L 3494 4666 
L 3494 1722 
L 4159 1722 
L 4159 850 
L 3494 850 
L 3494 0 
L 2356 0 
L 2356 850 
L 288 850 
L 288 1881 
L 2156 4666 
z
" id="DejaVuSans-Bold-34" transform="scale(0.015625)"/>
       </defs>
       <use xlink:href="#DejaVuSans-Bold-34"/>
       <use x="69.580078" xlink:href="#DejaVuSans-Bold-30"/>
      </g>
     </g>
    </g>
    <g id="xtick_4">
     <g id="line2d_4">
      <g>
       <use style="stroke:#000000;stroke-width:0.8;" x="687.88987" xlink:href="#m6862190965" y="456.8904"/>
      </g>
     </g>
     <g id="text_4">
      <!-- 60 -->
      <g transform="translate(677.453151 475.288056)scale(0.15 -0.15)">
       <defs>
        <path d="M 2316 2303 
Q 2000 2303 1842 2098 
Q 1684 1894 1684 1484 
Q 1684 1075 1842 870 
Q 2000 666 2316 666 
Q 2634 666 2792 870 
Q 2950 1075 2950 1484 
Q 2950 1894 2792 2098 
Q 2634 2303 2316 2303 
z
M 3803 4544 
L 3803 3681 
Q 3506 3822 3243 3889 
Q 2981 3956 2731 3956 
Q 2194 3956 1894 3657 
Q 1594 3359 1544 2772 
Q 1750 2925 1990 3001 
Q 2231 3078 2516 3078 
Q 3231 3078 3670 2659 
Q 4109 2241 4109 1563 
Q 4109 813 3618 361 
Q 3128 -91 2303 -91 
Q 1394 -91 895 523 
Q 397 1138 397 2266 
Q 397 3422 980 4083 
Q 1563 4744 2578 4744 
Q 2900 4744 3203 4694 
Q 3506 4644 3803 4544 
z
" id="DejaVuSans-Bold-36" transform="scale(0.015625)"/>
       </defs>
       <use xlink:href="#DejaVuSans-Bold-36"/>
       <use x="69.580078" xlink:href="#DejaVuSans-Bold-30"/>
      </g>
     </g>
    </g>
    <g id="xtick_5">
     <g id="line2d_5">
      <g>
       <use style="stroke:#000000;stroke-width:0.8;" x="861.811948" xlink:href="#m6862190965" y="456.8904"/>
      </g>
     </g>
     <g id="text_5">
      <!-- 80 -->
      <g transform="translate(851.375229 475.288056)scale(0.15 -0.15)">
       <defs>
        <path d="M 2228 2088 
Q 1891 2088 1709 1903 
Q 1528 1719 1528 1375 
Q 1528 1031 1709 848 
Q 1891 666 2228 666 
Q 2563 666 2741 848 
Q 2919 1031 2919 1375 
Q 2919 1722 2741 1905 
Q 2563 2088 2228 2088 
z
M 1350 2484 
Q 925 2613 709 2878 
Q 494 3144 494 3541 
Q 494 4131 934 4440 
Q 1375 4750 2228 4750 
Q 3075 4750 3515 4442 
Q 3956 4134 3956 3541 
Q 3956 3144 3739 2878 
Q 3522 2613 3097 2484 
Q 3572 2353 3814 2058 
Q 4056 1763 4056 1313 
Q 4056 619 3595 264 
Q 3134 -91 2228 -91 
Q 1319 -91 855 264 
Q 391 619 391 1313 
Q 391 1763 633 2058 
Q 875 2353 1350 2484 
z
M 1631 3419 
Q 1631 3141 1786 2991 
Q 1941 2841 2228 2841 
Q 2509 2841 2662 2991 
Q 2816 3141 2816 3419 
Q 2816 3697 2662 3845 
Q 2509 3994 2228 3994 
Q 1941 3994 1786 3844 
Q 1631 3694 1631 3419 
z
" id="DejaVuSans-Bold-38" transform="scale(0.015625)"/>
       </defs>
       <use xlink:href="#DejaVuSans-Bold-38"/>
       <use x="69.580078" xlink:href="#DejaVuSans-Bold-30"/>
      </g>
     </g>
    </g>
    <g id="text_6">
     <!-- time sample (60 samples = 1 second) -->
     <g transform="translate(319.92875 497.604463)scale(0.2 -0.2)">
      <defs>
       <path d="M 1759 4494 
L 1759 3500 
L 2913 3500 
L 2913 2700 
L 1759 2700 
L 1759 1216 
Q 1759 972 1856 886 
Q 1953 800 2241 800 
L 2816 800 
L 2816 0 
L 1856 0 
Q 1194 0 917 276 
Q 641 553 641 1216 
L 641 2700 
L 84 2700 
L 84 3500 
L 641 3500 
L 641 4494 
L 1759 4494 
z
" id="DejaVuSans-Bold-74" transform="scale(0.015625)"/>
       <path d="M 538 3500 
L 1656 3500 
L 1656 0 
L 538 0 
L 538 3500 
z
M 538 4863 
L 1656 4863 
L 1656 3950 
L 538 3950 
L 538 4863 
z
" id="DejaVuSans-Bold-69" transform="scale(0.015625)"/>
       <path d="M 3781 2919 
Q 3994 3244 4286 3414 
Q 4578 3584 4928 3584 
Q 5531 3584 5847 3212 
Q 6163 2841 6163 2131 
L 6163 0 
L 5038 0 
L 5038 1825 
Q 5041 1866 5042 1909 
Q 5044 1953 5044 2034 
Q 5044 2406 4934 2573 
Q 4825 2741 4581 2741 
Q 4263 2741 4089 2478 
Q 3916 2216 3909 1719 
L 3909 0 
L 2784 0 
L 2784 1825 
Q 2784 2406 2684 2573 
Q 2584 2741 2328 2741 
Q 2006 2741 1831 2477 
Q 1656 2213 1656 1722 
L 1656 0 
L 531 0 
L 531 3500 
L 1656 3500 
L 1656 2988 
Q 1863 3284 2130 3434 
Q 2397 3584 2719 3584 
Q 3081 3584 3359 3409 
Q 3638 3234 3781 2919 
z
" id="DejaVuSans-Bold-6d" transform="scale(0.015625)"/>
       <path d="M 4031 1759 
L 4031 1441 
L 1416 1441 
Q 1456 1047 1700 850 
Q 1944 653 2381 653 
Q 2734 653 3104 758 
Q 3475 863 3866 1075 
L 3866 213 
Q 3469 63 3072 -14 
Q 2675 -91 2278 -91 
Q 1328 -91 801 392 
Q 275 875 275 1747 
Q 275 2603 792 3093 
Q 1309 3584 2216 3584 
Q 3041 3584 3536 3087 
Q 4031 2591 4031 1759 
z
M 2881 2131 
Q 2881 2450 2695 2645 
Q 2509 2841 2209 2841 
Q 1884 2841 1681 2658 
Q 1478 2475 1428 2131 
L 2881 2131 
z
" id="DejaVuSans-Bold-65" transform="scale(0.015625)"/>
       <path id="DejaVuSans-Bold-20" transform="scale(0.015625)"/>
       <path d="M 3272 3391 
L 3272 2541 
Q 2913 2691 2578 2766 
Q 2244 2841 1947 2841 
Q 1628 2841 1473 2761 
Q 1319 2681 1319 2516 
Q 1319 2381 1436 2309 
Q 1553 2238 1856 2203 
L 2053 2175 
Q 2913 2066 3209 1816 
Q 3506 1566 3506 1031 
Q 3506 472 3093 190 
Q 2681 -91 1863 -91 
Q 1516 -91 1145 -36 
Q 775 19 384 128 
L 384 978 
Q 719 816 1070 734 
Q 1422 653 1784 653 
Q 2113 653 2278 743 
Q 2444 834 2444 1013 
Q 2444 1163 2330 1236 
Q 2216 1309 1875 1350 
L 1678 1375 
Q 931 1469 631 1722 
Q 331 1975 331 2491 
Q 331 3047 712 3315 
Q 1094 3584 1881 3584 
Q 2191 3584 2531 3537 
Q 2872 3491 3272 3391 
z
" id="DejaVuSans-Bold-73" transform="scale(0.015625)"/>
       <path d="M 2106 1575 
Q 1756 1575 1579 1456 
Q 1403 1338 1403 1106 
Q 1403 894 1545 773 
Q 1688 653 1941 653 
Q 2256 653 2472 879 
Q 2688 1106 2688 1447 
L 2688 1575 
L 2106 1575 
z
M 3816 1997 
L 3816 0 
L 2688 0 
L 2688 519 
Q 2463 200 2181 54 
Q 1900 -91 1497 -91 
Q 953 -91 614 226 
Q 275 544 275 1050 
Q 275 1666 698 1953 
Q 1122 2241 2028 2241 
L 2688 2241 
L 2688 2328 
Q 2688 2594 2478 2717 
Q 2269 2841 1825 2841 
Q 1466 2841 1156 2769 
Q 847 2697 581 2553 
L 581 3406 
Q 941 3494 1303 3539 
Q 1666 3584 2028 3584 
Q 2975 3584 3395 3211 
Q 3816 2838 3816 1997 
z
" id="DejaVuSans-Bold-61" transform="scale(0.015625)"/>
       <path d="M 1656 506 
L 1656 -1331 
L 538 -1331 
L 538 3500 
L 1656 3500 
L 1656 2988 
Q 1888 3294 2169 3439 
Q 2450 3584 2816 3584 
Q 3463 3584 3878 3070 
Q 4294 2556 4294 1747 
Q 4294 938 3878 423 
Q 3463 -91 2816 -91 
Q 2450 -91 2169 54 
Q 1888 200 1656 506 
z
M 2400 2772 
Q 2041 2772 1848 2508 
Q 1656 2244 1656 1747 
Q 1656 1250 1848 986 
Q 2041 722 2400 722 
Q 2759 722 2948 984 
Q 3138 1247 3138 1747 
Q 3138 2247 2948 2509 
Q 2759 2772 2400 2772 
z
" id="DejaVuSans-Bold-70" transform="scale(0.015625)"/>
       <path d="M 538 4863 
L 1656 4863 
L 1656 0 
L 538 0 
L 538 4863 
z
" id="DejaVuSans-Bold-6c" transform="scale(0.015625)"/>
       <path d="M 2413 -844 
L 1484 -844 
Q 1006 -72 778 623 
Q 550 1319 550 2003 
Q 550 2688 779 3389 
Q 1009 4091 1484 4856 
L 2413 4856 
Q 2013 4116 1813 3408 
Q 1613 2700 1613 2009 
Q 1613 1319 1811 609 
Q 2009 -100 2413 -844 
z
" id="DejaVuSans-Bold-28" transform="scale(0.015625)"/>
       <path d="M 678 3084 
L 4684 3084 
L 4684 2350 
L 678 2350 
L 678 3084 
z
M 678 1663 
L 4684 1663 
L 4684 922 
L 678 922 
L 678 1663 
z
" id="DejaVuSans-Bold-3d" transform="scale(0.015625)"/>
       <path d="M 750 831 
L 1813 831 
L 1813 3847 
L 722 3622 
L 722 4441 
L 1806 4666 
L 2950 4666 
L 2950 831 
L 4013 831 
L 4013 0 
L 750 0 
L 750 831 
z
" id="DejaVuSans-Bold-31" transform="scale(0.015625)"/>
       <path d="M 3366 3391 
L 3366 2478 
Q 3138 2634 2908 2709 
Q 2678 2784 2431 2784 
Q 1963 2784 1702 2511 
Q 1441 2238 1441 1747 
Q 1441 1256 1702 982 
Q 1963 709 2431 709 
Q 2694 709 2930 787 
Q 3166 866 3366 1019 
L 3366 103 
Q 3103 6 2833 -42 
Q 2563 -91 2291 -91 
Q 1344 -91 809 395 
Q 275 881 275 1747 
Q 275 2613 809 3098 
Q 1344 3584 2291 3584 
Q 2566 3584 2833 3536 
Q 3100 3488 3366 3391 
z
" id="DejaVuSans-Bold-63" transform="scale(0.015625)"/>
       <path d="M 2203 2784 
Q 1831 2784 1636 2517 
Q 1441 2250 1441 1747 
Q 1441 1244 1636 976 
Q 1831 709 2203 709 
Q 2569 709 2762 976 
Q 2956 1244 2956 1747 
Q 2956 2250 2762 2517 
Q 2569 2784 2203 2784 
z
M 2203 3584 
Q 3106 3584 3614 3096 
Q 4122 2609 4122 1747 
Q 4122 884 3614 396 
Q 3106 -91 2203 -91 
Q 1297 -91 786 396 
Q 275 884 275 1747 
Q 275 2609 786 3096 
Q 1297 3584 2203 3584 
z
" id="DejaVuSans-Bold-6f" transform="scale(0.015625)"/>
       <path d="M 4056 2131 
L 4056 0 
L 2931 0 
L 2931 347 
L 2931 1631 
Q 2931 2084 2911 2256 
Q 2891 2428 2841 2509 
Q 2775 2619 2662 2680 
Q 2550 2741 2406 2741 
Q 2056 2741 1856 2470 
Q 1656 2200 1656 1722 
L 1656 0 
L 538 0 
L 538 3500 
L 1656 3500 
L 1656 2988 
Q 1909 3294 2193 3439 
Q 2478 3584 2822 3584 
Q 3428 3584 3742 3212 
Q 4056 2841 4056 2131 
z
" id="DejaVuSans-Bold-6e" transform="scale(0.015625)"/>
       <path d="M 2919 2988 
L 2919 4863 
L 4044 4863 
L 4044 0 
L 2919 0 
L 2919 506 
Q 2688 197 2409 53 
Q 2131 -91 1766 -91 
Q 1119 -91 703 423 
Q 288 938 288 1747 
Q 288 2556 703 3070 
Q 1119 3584 1766 3584 
Q 2128 3584 2408 3439 
Q 2688 3294 2919 2988 
z
M 2181 722 
Q 2541 722 2730 984 
Q 2919 1247 2919 1747 
Q 2919 2247 2730 2509 
Q 2541 2772 2181 2772 
Q 1825 2772 1636 2509 
Q 1447 2247 1447 1747 
Q 1447 1247 1636 984 
Q 1825 722 2181 722 
z
" id="DejaVuSans-Bold-64" transform="scale(0.015625)"/>
       <path d="M 513 -844 
Q 913 -100 1113 609 
Q 1313 1319 1313 2009 
Q 1313 2700 1113 3408 
Q 913 4116 513 4856 
L 1441 4856 
Q 1916 4091 2145 3389 
Q 2375 2688 2375 2003 
Q 2375 1319 2147 623 
Q 1919 -72 1441 -844 
L 513 -844 
z
" id="DejaVuSans-Bold-29" transform="scale(0.015625)"/>
      </defs>
      <use xlink:href="#DejaVuSans-Bold-74"/>
      <use x="47.802734" xlink:href="#DejaVuSans-Bold-69"/>
      <use x="82.080078" xlink:href="#DejaVuSans-Bold-6d"/>
      <use x="186.279297" xlink:href="#DejaVuSans-Bold-65"/>
      <use x="254.101562" xlink:href="#DejaVuSans-Bold-20"/>
      <use x="288.916016" xlink:href="#DejaVuSans-Bold-73"/>
      <use x="348.4375" xlink:href="#DejaVuSans-Bold-61"/>
      <use x="415.917969" xlink:href="#DejaVuSans-Bold-6d"/>
      <use x="520.117188" xlink:href="#DejaVuSans-Bold-70"/>
      <use x="591.699219" xlink:href="#DejaVuSans-Bold-6c"/>
      <use x="625.976562" xlink:href="#DejaVuSans-Bold-65"/>
      <use x="693.798828" xlink:href="#DejaVuSans-Bold-20"/>
      <use x="728.613281" xlink:href="#DejaVuSans-Bold-28"/>
      <use x="774.316406" xlink:href="#DejaVuSans-Bold-36"/>
      <use x="843.896484" xlink:href="#DejaVuSans-Bold-30"/>
      <use x="913.476562" xlink:href="#DejaVuSans-Bold-20"/>
      <use x="948.291016" xlink:href="#DejaVuSans-Bold-73"/>
      <use x="1007.8125" xlink:href="#DejaVuSans-Bold-61"/>
      <use x="1075.292969" xlink:href="#DejaVuSans-Bold-6d"/>
      <use x="1179.492188" xlink:href="#DejaVuSans-Bold-70"/>
      <use x="1251.074219" xlink:href="#DejaVuSans-Bold-6c"/>
      <use x="1285.351562" xlink:href="#DejaVuSans-Bold-65"/>
      <use x="1353.173828" xlink:href="#DejaVuSans-Bold-73"/>
      <use x="1412.695312" xlink:href="#DejaVuSans-Bold-20"/>
      <use x="1447.509766" xlink:href="#DejaVuSans-Bold-3d"/>
      <use x="1531.298828" xlink:href="#DejaVuSans-Bold-20"/>
      <use x="1566.113281" xlink:href="#DejaVuSans-Bold-31"/>
      <use x="1635.693359" xlink:href="#DejaVuSans-Bold-20"/>
      <use x="1670.507812" xlink:href="#DejaVuSans-Bold-73"/>
      <use x="1730.029297" xlink:href="#DejaVuSans-Bold-65"/>
      <use x="1797.851562" xlink:href="#DejaVuSans-Bold-63"/>
      <use x="1857.128906" xlink:href="#DejaVuSans-Bold-6f"/>
      <use x="1925.830078" xlink:href="#DejaVuSans-Bold-6e"/>
      <use x="1997.021484" xlink:href="#DejaVuSans-Bold-64"/>
      <use x="2068.603516" xlink:href="#DejaVuSans-Bold-29"/>
     </g>
    </g>
   </g>
   <g id="matplotlib.axis_2">
    <g id="ytick_1">
     <g id="line2d_6">
      <defs>
       <path d="M 0 0 
L -3.5 0 
" id="m7188068eba" style="stroke:#000000;stroke-width:0.8;"/>
      </defs>
      <g>
       <use style="stroke:#000000;stroke-width:0.8;" x="129.6" xlink:href="#m7188068eba" y="438.9228"/>
      </g>
     </g>
     <g id="text_7">
      <!-- −1.00 -->
      <g transform="translate(73.022656 444.621628)scale(0.15 -0.15)">
       <defs>
        <path d="M 678 2375 
L 4684 2375 
L 4684 1638 
L 678 1638 
L 678 2375 
z
" id="DejaVuSans-Bold-2212" transform="scale(0.015625)"/>
        <path d="M 653 1209 
L 1778 1209 
L 1778 0 
L 653 0 
L 653 1209 
z
" id="DejaVuSans-Bold-2e" transform="scale(0.015625)"/>
       </defs>
       <use xlink:href="#DejaVuSans-Bold-2212"/>
       <use x="83.789062" xlink:href="#DejaVuSans-Bold-31"/>
       <use x="153.369141" xlink:href="#DejaVuSans-Bold-2e"/>
       <use x="191.357422" xlink:href="#DejaVuSans-Bold-30"/>
       <use x="260.9375" xlink:href="#DejaVuSans-Bold-30"/>
      </g>
     </g>
    </g>
    <g id="ytick_2">
     <g id="line2d_7">
      <g>
       <use style="stroke:#000000;stroke-width:0.8;" x="129.6" xlink:href="#m7188068eba" y="394.0038"/>
      </g>
     </g>
     <g id="text_8">
      <!-- −0.75 -->
      <g transform="translate(73.022656 399.702628)scale(0.15 -0.15)">
       <defs>
        <path d="M 428 4666 
L 3944 4666 
L 3944 3988 
L 2125 0 
L 953 0 
L 2675 3781 
L 428 3781 
L 428 4666 
z
" id="DejaVuSans-Bold-37" transform="scale(0.015625)"/>
        <path d="M 678 4666 
L 3669 4666 
L 3669 3781 
L 1638 3781 
L 1638 3059 
Q 1775 3097 1914 3117 
Q 2053 3138 2203 3138 
Q 3056 3138 3531 2711 
Q 4006 2284 4006 1522 
Q 4006 766 3489 337 
Q 2972 -91 2053 -91 
Q 1656 -91 1267 -14 
Q 878 63 494 219 
L 494 1166 
Q 875 947 1217 837 
Q 1559 728 1863 728 
Q 2300 728 2551 942 
Q 2803 1156 2803 1522 
Q 2803 1891 2551 2103 
Q 2300 2316 1863 2316 
Q 1603 2316 1309 2248 
Q 1016 2181 678 2041 
L 678 4666 
z
" id="DejaVuSans-Bold-35" transform="scale(0.015625)"/>
       </defs>
       <use xlink:href="#DejaVuSans-Bold-2212"/>
       <use x="83.789062" xlink:href="#DejaVuSans-Bold-30"/>
       <use x="153.369141" xlink:href="#DejaVuSans-Bold-2e"/>
       <use x="191.357422" xlink:href="#DejaVuSans-Bold-37"/>
       <use x="260.9375" xlink:href="#DejaVuSans-Bold-35"/>
      </g>
     </g>
    </g>
    <g id="ytick_3">
     <g id="line2d_8">
      <g>
       <use style="stroke:#000000;stroke-width:0.8;" x="129.6" xlink:href="#m7188068eba" y="349.0848"/>
      </g>
     </g>
     <g id="text_9">
      <!-- −0.50 -->
      <g transform="translate(73.022656 354.783628)scale(0.15 -0.15)">
       <use xlink:href="#DejaVuSans-Bold-2212"/>
       <use x="83.789062" xlink:href="#DejaVuSans-Bold-30"/>
       <use x="153.369141" xlink:href="#DejaVuSans-Bold-2e"/>
       <use x="191.357422" xlink:href="#DejaVuSans-Bold-35"/>
       <use x="260.9375" xlink:href="#DejaVuSans-Bold-30"/>
      </g>
     </g>
    </g>
    <g id="ytick_4">
     <g id="line2d_9">
      <g>
       <use style="stroke:#000000;stroke-width:0.8;" x="129.6" xlink:href="#m7188068eba" y="304.1658"/>
      </g>
     </g>
     <g id="text_10">
      <!-- −0.25 -->
      <g transform="translate(73.022656 309.864628)scale(0.15 -0.15)">
       <use xlink:href="#DejaVuSans-Bold-2212"/>
       <use x="83.789062" xlink:href="#DejaVuSans-Bold-30"/>
       <use x="153.369141" xlink:href="#DejaVuSans-Bold-2e"/>
       <use x="191.357422" xlink:href="#DejaVuSans-Bold-32"/>
       <use x="260.9375" xlink:href="#DejaVuSans-Bold-35"/>
      </g>
     </g>
    </g>
    <g id="ytick_5">
     <g id="line2d_10">
      <g>
       <use style="stroke:#000000;stroke-width:0.8;" x="129.6" xlink:href="#m7188068eba" y="259.2468"/>
      </g>
     </g>
     <g id="text_11">
      <!-- 0.00 -->
      <g transform="translate(85.592187 264.945628)scale(0.15 -0.15)">
       <use xlink:href="#DejaVuSans-Bold-30"/>
       <use x="69.580078" xlink:href="#DejaVuSans-Bold-2e"/>
       <use x="107.568359" xlink:href="#DejaVuSans-Bold-30"/>
       <use x="177.148438" xlink:href="#DejaVuSans-Bold-30"/>
      </g>
     </g>
    </g>
    <g id="ytick_6">
     <g id="line2d_11">
      <g>
       <use style="stroke:#000000;stroke-width:0.8;" x="129.6" xlink:href="#m7188068eba" y="214.3278"/>
      </g>
     </g>
     <g id="text_12">
      <!-- 0.25 -->
      <g transform="translate(85.592187 220.026628)scale(0.15 -0.15)">
       <use xlink:href="#DejaVuSans-Bold-30"/>
       <use x="69.580078" xlink:href="#DejaVuSans-Bold-2e"/>
       <use x="107.568359" xlink:href="#DejaVuSans-Bold-32"/>
       <use x="177.148438" xlink:href="#DejaVuSans-Bold-35"/>
      </g>
     </g>
    </g>
    <g id="ytick_7">
     <g id="line2d_12">
      <g>
       <use style="stroke:#000000;stroke-width:0.8;" x="129.6" xlink:href="#m7188068eba" y="169.4088"/>
      </g>
     </g>
     <g id="text_13">
      <!-- 0.50 -->
      <g transform="translate(85.592187 175.107628)scale(0.15 -0.15)">
       <use xlink:href="#DejaVuSans-Bold-30"/>
       <use x="69.580078" xlink:href="#DejaVuSans-Bold-2e"/>
       <use x="107.568359" xlink:href="#DejaVuSans-Bold-35"/>
       <use x="177.148438" xlink:href="#DejaVuSans-Bold-30"/>
      </g>
     </g>
    </g>
    <g id="ytick_8">
     <g id="line2d_13">
      <g>
       <use style="stroke:#000000;stroke-width:0.8;" x="129.6" xlink:href="#m7188068eba" y="124.4898"/>
      </g>
     </g>
     <g id="text_14">
      <!-- 0.75 -->
      <g transform="translate(85.592187 130.188628)scale(0.15 -0.15)">
       <use xlink:href="#DejaVuSans-Bold-30"/>
       <use x="69.580078" xlink:href="#DejaVuSans-Bold-2e"/>
       <use x="107.568359" xlink:href="#DejaVuSans-Bold-37"/>
       <use x="177.148438" xlink:href="#DejaVuSans-Bold-35"/>
      </g>
     </g>
    </g>
    <g id="ytick_9">
     <g id="line2d_14">
      <g>
       <use style="stroke:#000000;stroke-width:0.8;" x="129.6" xlink:href="#m7188068eba" y="79.5708"/>
      </g>
     </g>
     <g id="text_15">
      <!-- 1.00 -->
      <g transform="translate(85.592187 85.269628)scale(0.15 -0.15)">
       <use xlink:href="#DejaVuSans-Bold-31"/>
       <use x="69.580078" xlink:href="#DejaVuSans-Bold-2e"/>
       <use x="107.568359" xlink:href="#DejaVuSans-Bold-30"/>
       <use x="177.148438" xlink:href="#DejaVuSans-Bold-30"/>
      </g>
     </g>
    </g>
    <g id="text_16">
     <!-- PPG magnitude  -->
     <g transform="translate(42.155156 349.788988)rotate(-90)scale(0.2 -0.2)">
      <defs>
       <path d="M 588 4666 
L 2584 4666 
Q 3475 4666 3951 4270 
Q 4428 3875 4428 3144 
Q 4428 2409 3951 2014 
Q 3475 1619 2584 1619 
L 1791 1619 
L 1791 0 
L 588 0 
L 588 4666 
z
M 1791 3794 
L 1791 2491 
L 2456 2491 
Q 2806 2491 2997 2661 
Q 3188 2831 3188 3144 
Q 3188 3456 2997 3625 
Q 2806 3794 2456 3794 
L 1791 3794 
z
" id="DejaVuSans-Bold-50" transform="scale(0.015625)"/>
       <path d="M 4781 347 
Q 4331 128 3847 18 
Q 3363 -91 2847 -91 
Q 1681 -91 1000 561 
Q 319 1213 319 2328 
Q 319 3456 1012 4103 
Q 1706 4750 2913 4750 
Q 3378 4750 3804 4662 
Q 4231 4575 4609 4403 
L 4609 3438 
Q 4219 3659 3833 3768 
Q 3447 3878 3059 3878 
Q 2341 3878 1952 3476 
Q 1563 3075 1563 2328 
Q 1563 1588 1938 1184 
Q 2313 781 3003 781 
Q 3191 781 3352 804 
Q 3513 828 3641 878 
L 3641 1784 
L 2906 1784 
L 2906 2591 
L 4781 2591 
L 4781 347 
z
" id="DejaVuSans-Bold-47" transform="scale(0.015625)"/>
       <path d="M 2919 594 
Q 2688 288 2409 144 
Q 2131 0 1766 0 
Q 1125 0 706 504 
Q 288 1009 288 1791 
Q 288 2575 706 3076 
Q 1125 3578 1766 3578 
Q 2131 3578 2409 3434 
Q 2688 3291 2919 2981 
L 2919 3500 
L 4044 3500 
L 4044 353 
Q 4044 -491 3511 -936 
Q 2978 -1381 1966 -1381 
Q 1638 -1381 1331 -1331 
Q 1025 -1281 716 -1178 
L 716 -306 
Q 1009 -475 1290 -558 
Q 1572 -641 1856 -641 
Q 2406 -641 2662 -400 
Q 2919 -159 2919 353 
L 2919 594 
z
M 2181 2772 
Q 1834 2772 1640 2515 
Q 1447 2259 1447 1791 
Q 1447 1309 1634 1061 
Q 1822 813 2181 813 
Q 2531 813 2725 1069 
Q 2919 1325 2919 1791 
Q 2919 2259 2725 2515 
Q 2531 2772 2181 2772 
z
" id="DejaVuSans-Bold-67" transform="scale(0.015625)"/>
       <path d="M 500 1363 
L 500 3500 
L 1625 3500 
L 1625 3150 
Q 1625 2866 1622 2436 
Q 1619 2006 1619 1863 
Q 1619 1441 1641 1255 
Q 1663 1069 1716 984 
Q 1784 875 1895 815 
Q 2006 756 2150 756 
Q 2500 756 2700 1025 
Q 2900 1294 2900 1772 
L 2900 3500 
L 4019 3500 
L 4019 0 
L 2900 0 
L 2900 506 
Q 2647 200 2364 54 
Q 2081 -91 1741 -91 
Q 1134 -91 817 281 
Q 500 653 500 1363 
z
" id="DejaVuSans-Bold-75" transform="scale(0.015625)"/>
      </defs>
      <use xlink:href="#DejaVuSans-Bold-50"/>
      <use x="73.291016" xlink:href="#DejaVuSans-Bold-50"/>
      <use x="146.582031" xlink:href="#DejaVuSans-Bold-47"/>
      <use x="228.662109" xlink:href="#DejaVuSans-Bold-20"/>
      <use x="263.476562" xlink:href="#DejaVuSans-Bold-6d"/>
      <use x="367.675781" xlink:href="#DejaVuSans-Bold-61"/>
      <use x="435.15625" xlink:href="#DejaVuSans-Bold-67"/>
      <use x="506.738281" xlink:href="#DejaVuSans-Bold-6e"/>
      <use x="577.929688" xlink:href="#DejaVuSans-Bold-69"/>
      <use x="612.207031" xlink:href="#DejaVuSans-Bold-74"/>
      <use x="660.009766" xlink:href="#DejaVuSans-Bold-75"/>
      <use x="731.201172" xlink:href="#DejaVuSans-Bold-64"/>
      <use x="802.783203" xlink:href="#DejaVuSans-Bold-65"/>
      <use x="870.605469" xlink:href="#DejaVuSans-Bold-20"/>
     </g>
     <!--  (Normalized voltage) -->
     <g transform="translate(64.707031 381.592113)rotate(-90)scale(0.2 -0.2)">
      <defs>
       <path d="M 588 4666 
L 1931 4666 
L 3628 1466 
L 3628 4666 
L 4769 4666 
L 4769 0 
L 3425 0 
L 1728 3200 
L 1728 0 
L 588 0 
L 588 4666 
z
" id="DejaVuSans-Bold-4e" transform="scale(0.015625)"/>
       <path d="M 3138 2547 
Q 2991 2616 2845 2648 
Q 2700 2681 2553 2681 
Q 2122 2681 1889 2404 
Q 1656 2128 1656 1613 
L 1656 0 
L 538 0 
L 538 3500 
L 1656 3500 
L 1656 2925 
Q 1872 3269 2151 3426 
Q 2431 3584 2822 3584 
Q 2878 3584 2943 3579 
Q 3009 3575 3134 3559 
L 3138 2547 
z
" id="DejaVuSans-Bold-72" transform="scale(0.015625)"/>
       <path d="M 366 3500 
L 3419 3500 
L 3419 2719 
L 1575 800 
L 3419 800 
L 3419 0 
L 288 0 
L 288 781 
L 2131 2700 
L 366 2700 
L 366 3500 
z
" id="DejaVuSans-Bold-7a" transform="scale(0.015625)"/>
       <path d="M 97 3500 
L 1216 3500 
L 2088 1081 
L 2956 3500 
L 4078 3500 
L 2700 0 
L 1472 0 
L 97 3500 
z
" id="DejaVuSans-Bold-76" transform="scale(0.015625)"/>
      </defs>
      <use xlink:href="#DejaVuSans-Bold-20"/>
      <use x="34.814453" xlink:href="#DejaVuSans-Bold-28"/>
      <use x="80.517578" xlink:href="#DejaVuSans-Bold-4e"/>
      <use x="164.208984" xlink:href="#DejaVuSans-Bold-6f"/>
      <use x="232.910156" xlink:href="#DejaVuSans-Bold-72"/>
      <use x="282.226562" xlink:href="#DejaVuSans-Bold-6d"/>
      <use x="386.425781" xlink:href="#DejaVuSans-Bold-61"/>
      <use x="453.90625" xlink:href="#DejaVuSans-Bold-6c"/>
      <use x="488.183594" xlink:href="#DejaVuSans-Bold-69"/>
      <use x="522.460938" xlink:href="#DejaVuSans-Bold-7a"/>
      <use x="580.664062" xlink:href="#DejaVuSans-Bold-65"/>
      <use x="648.486328" xlink:href="#DejaVuSans-Bold-64"/>
      <use x="720.068359" xlink:href="#DejaVuSans-Bold-20"/>
      <use x="754.882812" xlink:href="#DejaVuSans-Bold-76"/>
      <use x="820.068359" xlink:href="#DejaVuSans-Bold-6f"/>
      <use x="888.769531" xlink:href="#DejaVuSans-Bold-6c"/>
      <use x="923.046875" xlink:href="#DejaVuSans-Bold-74"/>
      <use x="970.849609" xlink:href="#DejaVuSans-Bold-61"/>
      <use x="1038.330078" xlink:href="#DejaVuSans-Bold-67"/>
      <use x="1109.912109" xlink:href="#DejaVuSans-Bold-65"/>
      <use x="1177.734375" xlink:href="#DejaVuSans-Bold-29"/>
     </g>
    </g>
   </g>
   <g id="line2d_15">
    <path clip-path="url(#p9163a27b43)" d="M 166.123636 178.995885 
L 174.81974 183.766044 
L 183.515844 187.975008 
L 192.211948 190.968049 
L 200.908052 193.119298 
L 209.604156 195.457611 
L 218.30026 199.666575 
L 226.996364 207.616841 
L 235.692468 219.77607 
L 244.388571 235.396004 
L 253.084675 252.23186 
L 261.780779 267.477663 
L 270.476883 278.888632 
L 279.172987 285.622975 
L 287.869091 288.803081 
L 296.565195 290.860797 
L 305.261299 294.789163 
L 313.957403 302.832961 
L 322.653506 315.833984 
L 331.34961 332.389242 
L 340.045714 349.225099 
L 348.741818 361.758459 
L 357.437922 365.406227 
L 366.134026 356.988299 
L 374.83013 335.382284 
L 383.526234 302.084701 
L 392.222338 260.649788 
L 400.918442 215.473574 
L 409.614545 171.41975 
L 418.310649 132.884345 
L 427.006753 103.234531 
L 435.702857 84.995687 
L 444.398961 79.5708 
L 453.095065 86.21161 
L 461.791169 102.953934 
L 470.487273 125.775872 
L 479.183377 150.000799 
L 487.879481 171.045619 
L 496.575584 185.636695 
L 505.271688 192.183972 
L 513.967792 191.061582 
L 522.663896 184.514304 
L 531.36 175.535181 
L 540.056104 167.117253 
L 548.752208 161.598833 
L 557.448312 159.728183 
L 566.144416 161.131171 
L 574.840519 164.685407 
L 583.536623 169.362034 
L 592.232727 174.786921 
L 600.928831 181.334198 
L 609.624935 189.752126 
L 618.321039 200.6019 
L 627.017143 214.070586 
L 635.713247 229.784051 
L 644.409351 247.648766 
L 653.105455 267.290598 
L 661.801558 288.054821 
L 670.497662 309.006109 
L 679.193766 328.367343 
L 687.88987 344.922602 
L 696.585974 358.765417 
L 705.282078 371.39231 
L 713.978182 385.328657 
L 722.674286 401.883916 
L 731.37039 419.468033 
L 740.066494 433.872043 
L 748.762597 438.9228 
L 757.458701 429.756612 
L 766.154805 404.222229 
L 774.850909 364.283837 
L 783.547013 314.992191 
L 792.243117 262.333374 
L 800.939221 211.825805 
L 809.635325 167.584916 
L 818.331429 131.668422 
L 827.027532 105.572845 
L 835.723636 89.859379 
L 844.41974 83.966829 
L 853.115844 87.053403 
L 861.811948 97.154917 
L 870.508052 111.65246 
L 879.204156 127.927121 
L 887.90026 143.547054 
L 896.596364 155.986881 
" style="fill:none;stroke:#1f77b4;stroke-linecap:square;stroke-width:3;"/>
   </g>
   <g id="line2d_16">
    <path clip-path="url(#p9163a27b43)" d="M 166.123636 365.406227 
L 174.81974 356.988299 
L 183.515844 335.382284 
L 192.211948 302.084701 
L 200.908052 260.649788 
L 209.604156 215.473574 
L 218.30026 171.41975 
L 226.996364 132.884345 
L 235.692468 103.234531 
L 244.388571 84.995687 
L 253.084675 79.5708 
L 261.780779 86.21161 
L 270.476883 102.953934 
L 279.172987 125.775872 
L 287.869091 150.000799 
L 296.565195 171.045619 
L 305.261299 185.636695 
L 313.957403 192.183972 
L 322.653506 191.061582 
L 331.34961 184.514304 
L 340.045714 175.535181 
L 348.741818 167.117253 
L 357.437922 161.598833 
L 366.134026 159.728183 
L 374.83013 161.131171 
L 383.526234 164.685407 
L 392.222338 169.362034 
L 400.918442 174.786921 
L 409.614545 181.334198 
L 418.310649 189.752126 
L 427.006753 200.6019 
L 435.702857 214.070586 
L 444.398961 229.784051 
L 453.095065 247.648766 
L 461.791169 267.290598 
L 470.487273 288.054821 
L 479.183377 309.006109 
L 487.879481 328.367343 
L 496.575584 344.922602 
L 505.271688 358.765417 
L 513.967792 371.39231 
L 522.663896 385.328657 
L 531.36 401.883916 
L 540.056104 419.468033 
L 548.752208 433.872043 
L 557.448312 438.9228 
L 566.144416 429.756612 
L 574.840519 404.222229 
L 583.536623 364.283837 
L 592.232727 314.992191 
L 600.928831 262.333374 
L 609.624935 211.825805 
L 618.321039 167.584916 
L 627.017143 131.668422 
L 635.713247 105.572845 
L 644.409351 89.859379 
L 653.105455 83.966829 
L 661.801558 87.053403 
L 670.497662 97.154917 
L 679.193766 111.65246 
L 687.88987 127.927121 
L 696.585974 143.547054 
L 705.282078 155.986881 
L 713.978182 163.843614 
L 722.674286 166.368993 
L 731.37039 163.750082 
L 740.066494 157.483402 
L 748.762597 149.439604 
L 757.458701 141.489338 
L 766.154805 134.942061 
L 774.850909 130.078369 
L 783.547013 126.991795 
L 792.243117 125.68234 
L 800.939221 126.80473 
L 809.635325 131.107227 
L 818.331429 139.805753 
L 827.027532 153.087373 
L 835.723636 170.577957 
L 844.41974 190.968049 
L 853.115844 212.854663 
L 861.811948 234.834808 
L 870.508052 256.160226 
L 879.204156 277.017982 
L 887.90026 297.96927 
L 896.596364 319.575285 
" style="fill:none;stroke:#ff7f0e;stroke-linecap:square;stroke-width:3;"/>
   </g>
   <g id="line2d_17">
    <path clip-path="url(#p9163a27b43)" d="M 166.123636 164.615452 
L 174.81974 165.893678 
L 183.515844 169.131851 
L 192.211948 173.392605 
L 200.908052 178.33508 
L 209.604156 184.300136 
L 218.30026 191.969493 
L 226.996364 201.854442 
L 235.692468 214.125414 
L 244.388571 228.441548 
L 253.084675 244.717629 
L 261.780779 262.612796 
L 270.476883 281.530544 
L 279.172987 300.618722 
L 287.869091 318.258244 
L 296.565195 333.341314 
L 305.261299 345.953146 
L 313.957403 357.457182 
L 322.653506 370.154229 
L 331.34961 385.237298 
L 340.045714 401.257734 
L 348.741818 414.380856 
L 357.437922 418.982471 
L 366.134026 410.631393 
L 374.83013 387.367676 
L 383.526234 350.980836 
L 392.222338 306.072487 
L 400.918442 258.096396 
L 409.614545 212.080252 
L 418.310649 171.773519 
L 427.006753 139.050927 
L 435.702857 115.275919 
L 444.398961 100.959786 
L 453.095065 95.591235 
L 461.791169 98.403333 
L 470.487273 107.606562 
L 479.183377 120.8149 
L 487.879481 135.642324 
L 496.575584 149.873242 
L 505.271688 161.206848 
L 513.967792 168.364915 
L 522.663896 170.665722 
L 531.36 168.2797 
L 540.056104 162.57029 
L 548.752208 155.241793 
L 557.448312 147.998511 
L 566.144416 142.033455 
L 574.840519 137.602271 
L 583.536623 134.790173 
L 592.232727 133.597162 
L 600.928831 134.619743 
L 609.624935 138.539637 
L 618.321039 146.464639 
L 627.017143 158.565181 
L 635.713247 174.500401 
L 644.409351 193.077289 
L 653.105455 213.017618 
L 661.801558 233.043162 
L 670.497662 252.472201 
L 679.193766 271.475164 
L 687.88987 290.563343 
L 696.585974 310.248026 
L 705.282078 330.955291 
L 713.978182 352.855567 
L 722.674286 375.522779 
L 731.37039 397.934346 
L 740.066494 417.95989 
L 748.762597 432.872529 
L 757.458701 438.9228 
L 766.154805 432.872529 
L 774.850909 412.506125 
L 783.547013 378.079232 
L 792.243117 331.977872 
L 800.939221 279.229737 
L 809.635325 225.62945 
L 818.331429 176.886423 
L 827.027532 137.26141 
L 835.723636 108.543928 
L 844.41974 90.733976 
L 853.115844 81.786392 
L 861.811948 79.5708 
L 870.508052 81.871607 
L 879.204156 86.899297 
L 887.90026 93.716504 
L 896.596364 101.045001 
" style="fill:none;stroke:#2ca02c;stroke-linecap:square;stroke-width:3;"/>
   </g>
   <g id="patch_3">
    <path d="M 129.6 456.8904 
L 129.6 61.6032 
" style="fill:none;stroke:#000000;stroke-linecap:square;stroke-linejoin:miter;stroke-width:0.8;"/>
   </g>
   <g id="patch_4">
    <path d="M 933.12 456.8904 
L 933.12 61.6032 
" style="fill:none;stroke:#000000;stroke-linecap:square;stroke-linejoin:miter;stroke-width:0.8;"/>
   </g>
   <g id="patch_5">
    <path d="M 129.6 456.8904 
L 933.12 456.8904 
" style="fill:none;stroke:#000000;stroke-linecap:square;stroke-linejoin:miter;stroke-width:0.8;"/>
   </g>
   <g id="patch_6">
    <path d="M 129.6 61.6032 
L 933.12 61.6032 
" style="fill:none;stroke:#000000;stroke-linecap:square;stroke-linejoin:miter;stroke-width:0.8;"/>
   </g>
   <g id="text_17">
    <!-- Time Shifting can result both similar and dissimilar PPG -->
    <g transform="translate(184.088281 55.6032)scale(0.22 -0.22)">
     <defs>
      <path d="M 31 4666 
L 4331 4666 
L 4331 3756 
L 2784 3756 
L 2784 0 
L 1581 0 
L 1581 3756 
L 31 3756 
L 31 4666 
z
" id="DejaVuSans-Bold-54" transform="scale(0.015625)"/>
      <path d="M 3834 4519 
L 3834 3531 
Q 3450 3703 3084 3790 
Q 2719 3878 2394 3878 
Q 1963 3878 1756 3759 
Q 1550 3641 1550 3391 
Q 1550 3203 1689 3098 
Q 1828 2994 2194 2919 
L 2706 2816 
Q 3484 2659 3812 2340 
Q 4141 2022 4141 1434 
Q 4141 663 3683 286 
Q 3225 -91 2284 -91 
Q 1841 -91 1394 -6 
Q 947 78 500 244 
L 500 1259 
Q 947 1022 1364 901 
Q 1781 781 2169 781 
Q 2563 781 2772 912 
Q 2981 1044 2981 1288 
Q 2981 1506 2839 1625 
Q 2697 1744 2272 1838 
L 1806 1941 
Q 1106 2091 782 2419 
Q 459 2747 459 3303 
Q 459 4000 909 4375 
Q 1359 4750 2203 4750 
Q 2588 4750 2994 4692 
Q 3400 4634 3834 4519 
z
" id="DejaVuSans-Bold-53" transform="scale(0.015625)"/>
      <path d="M 4056 2131 
L 4056 0 
L 2931 0 
L 2931 347 
L 2931 1625 
Q 2931 2084 2911 2256 
Q 2891 2428 2841 2509 
Q 2775 2619 2662 2680 
Q 2550 2741 2406 2741 
Q 2056 2741 1856 2470 
Q 1656 2200 1656 1722 
L 1656 0 
L 538 0 
L 538 4863 
L 1656 4863 
L 1656 2988 
Q 1909 3294 2193 3439 
Q 2478 3584 2822 3584 
Q 3428 3584 3742 3212 
Q 4056 2841 4056 2131 
z
" id="DejaVuSans-Bold-68" transform="scale(0.015625)"/>
      <path d="M 2841 4863 
L 2841 4128 
L 2222 4128 
Q 1984 4128 1890 4042 
Q 1797 3956 1797 3744 
L 1797 3500 
L 2753 3500 
L 2753 2700 
L 1797 2700 
L 1797 0 
L 678 0 
L 678 2700 
L 122 2700 
L 122 3500 
L 678 3500 
L 678 3744 
Q 678 4316 997 4589 
Q 1316 4863 1984 4863 
L 2841 4863 
z
" id="DejaVuSans-Bold-66" transform="scale(0.015625)"/>
      <path d="M 2400 722 
Q 2759 722 2948 984 
Q 3138 1247 3138 1747 
Q 3138 2247 2948 2509 
Q 2759 2772 2400 2772 
Q 2041 2772 1848 2508 
Q 1656 2244 1656 1747 
Q 1656 1250 1848 986 
Q 2041 722 2400 722 
z
M 1656 2988 
Q 1888 3294 2169 3439 
Q 2450 3584 2816 3584 
Q 3463 3584 3878 3070 
Q 4294 2556 4294 1747 
Q 4294 938 3878 423 
Q 3463 -91 2816 -91 
Q 2450 -91 2169 54 
Q 1888 200 1656 506 
L 1656 0 
L 538 0 
L 538 4863 
L 1656 4863 
L 1656 2988 
z
" id="DejaVuSans-Bold-62" transform="scale(0.015625)"/>
     </defs>
     <use xlink:href="#DejaVuSans-Bold-54"/>
     <use x="68.212891" xlink:href="#DejaVuSans-Bold-69"/>
     <use x="102.490234" xlink:href="#DejaVuSans-Bold-6d"/>
     <use x="206.689453" xlink:href="#DejaVuSans-Bold-65"/>
     <use x="274.511719" xlink:href="#DejaVuSans-Bold-20"/>
     <use x="309.326172" xlink:href="#DejaVuSans-Bold-53"/>
     <use x="381.347656" xlink:href="#DejaVuSans-Bold-68"/>
     <use x="452.539062" xlink:href="#DejaVuSans-Bold-69"/>
     <use x="486.816406" xlink:href="#DejaVuSans-Bold-66"/>
     <use x="530.322266" xlink:href="#DejaVuSans-Bold-74"/>
     <use x="578.125" xlink:href="#DejaVuSans-Bold-69"/>
     <use x="612.402344" xlink:href="#DejaVuSans-Bold-6e"/>
     <use x="683.59375" xlink:href="#DejaVuSans-Bold-67"/>
     <use x="755.175781" xlink:href="#DejaVuSans-Bold-20"/>
     <use x="789.990234" xlink:href="#DejaVuSans-Bold-63"/>
     <use x="849.267578" xlink:href="#DejaVuSans-Bold-61"/>
     <use x="916.748047" xlink:href="#DejaVuSans-Bold-6e"/>
     <use x="987.939453" xlink:href="#DejaVuSans-Bold-20"/>
     <use x="1022.753906" xlink:href="#DejaVuSans-Bold-72"/>
     <use x="1072.070312" xlink:href="#DejaVuSans-Bold-65"/>
     <use x="1139.892578" xlink:href="#DejaVuSans-Bold-73"/>
     <use x="1199.414062" xlink:href="#DejaVuSans-Bold-75"/>
     <use x="1270.605469" xlink:href="#DejaVuSans-Bold-6c"/>
     <use x="1304.882812" xlink:href="#DejaVuSans-Bold-74"/>
     <use x="1352.685547" xlink:href="#DejaVuSans-Bold-20"/>
     <use x="1387.5" xlink:href="#DejaVuSans-Bold-62"/>
     <use x="1459.082031" xlink:href="#DejaVuSans-Bold-6f"/>
     <use x="1527.783203" xlink:href="#DejaVuSans-Bold-74"/>
     <use x="1575.585938" xlink:href="#DejaVuSans-Bold-68"/>
     <use x="1646.777344" xlink:href="#DejaVuSans-Bold-20"/>
     <use x="1681.591797" xlink:href="#DejaVuSans-Bold-73"/>
     <use x="1741.113281" xlink:href="#DejaVuSans-Bold-69"/>
     <use x="1775.390625" xlink:href="#DejaVuSans-Bold-6d"/>
     <use x="1879.589844" xlink:href="#DejaVuSans-Bold-69"/>
     <use x="1913.867188" xlink:href="#DejaVuSans-Bold-6c"/>
     <use x="1948.144531" xlink:href="#DejaVuSans-Bold-61"/>
     <use x="2015.625" xlink:href="#DejaVuSans-Bold-72"/>
     <use x="2064.941406" xlink:href="#DejaVuSans-Bold-20"/>
     <use x="2099.755859" xlink:href="#DejaVuSans-Bold-61"/>
     <use x="2167.236328" xlink:href="#DejaVuSans-Bold-6e"/>
     <use x="2238.427734" xlink:href="#DejaVuSans-Bold-64"/>
     <use x="2310.009766" xlink:href="#DejaVuSans-Bold-20"/>
     <use x="2344.824219" xlink:href="#DejaVuSans-Bold-64"/>
     <use x="2416.40625" xlink:href="#DejaVuSans-Bold-69"/>
     <use x="2450.683594" xlink:href="#DejaVuSans-Bold-73"/>
     <use x="2510.205078" xlink:href="#DejaVuSans-Bold-73"/>
     <use x="2569.726562" xlink:href="#DejaVuSans-Bold-69"/>
     <use x="2604.003906" xlink:href="#DejaVuSans-Bold-6d"/>
     <use x="2708.203125" xlink:href="#DejaVuSans-Bold-69"/>
     <use x="2742.480469" xlink:href="#DejaVuSans-Bold-6c"/>
     <use x="2776.757812" xlink:href="#DejaVuSans-Bold-61"/>
     <use x="2844.238281" xlink:href="#DejaVuSans-Bold-72"/>
     <use x="2893.554688" xlink:href="#DejaVuSans-Bold-20"/>
     <use x="2928.369141" xlink:href="#DejaVuSans-Bold-50"/>
     <use x="3001.660156" xlink:href="#DejaVuSans-Bold-50"/>
     <use x="3074.951172" xlink:href="#DejaVuSans-Bold-47"/>
    </g>
   </g>
   <g id="legend_1">
    <g id="patch_7">
     <path d="M 636.904375 446.8904 
L 919.12 446.8904 
Q 923.12 446.8904 923.12 442.8904 
L 923.12 356.82165 
Q 923.12 352.82165 919.12 352.82165 
L 636.904375 352.82165 
Q 632.904375 352.82165 632.904375 356.82165 
L 632.904375 442.8904 
Q 632.904375 446.8904 636.904375 446.8904 
z
" style="fill:#ffffff;opacity:0.8;stroke:#cccccc;stroke-linejoin:miter;"/>
    </g>
    <g id="line2d_18">
     <path d="M 640.904375 369.018525 
L 680.904375 369.018525 
" style="fill:none;stroke:#1f77b4;stroke-linecap:square;stroke-width:3;"/>
    </g>
    <g id="line2d_19"/>
    <g id="text_18">
     <!-- Sample PPG -->
     <g transform="translate(696.904375 376.018525)scale(0.2 -0.2)">
      <defs>
       <path d="M 3425 4513 
L 3425 3897 
Q 3066 4069 2747 4153 
Q 2428 4238 2131 4238 
Q 1616 4238 1336 4038 
Q 1056 3838 1056 3469 
Q 1056 3159 1242 3001 
Q 1428 2844 1947 2747 
L 2328 2669 
Q 3034 2534 3370 2195 
Q 3706 1856 3706 1288 
Q 3706 609 3251 259 
Q 2797 -91 1919 -91 
Q 1588 -91 1214 -16 
Q 841 59 441 206 
L 441 856 
Q 825 641 1194 531 
Q 1563 422 1919 422 
Q 2459 422 2753 634 
Q 3047 847 3047 1241 
Q 3047 1584 2836 1778 
Q 2625 1972 2144 2069 
L 1759 2144 
Q 1053 2284 737 2584 
Q 422 2884 422 3419 
Q 422 4038 858 4394 
Q 1294 4750 2059 4750 
Q 2388 4750 2728 4690 
Q 3069 4631 3425 4513 
z
" id="DejaVuSans-53" transform="scale(0.015625)"/>
       <path d="M 2194 1759 
Q 1497 1759 1228 1600 
Q 959 1441 959 1056 
Q 959 750 1161 570 
Q 1363 391 1709 391 
Q 2188 391 2477 730 
Q 2766 1069 2766 1631 
L 2766 1759 
L 2194 1759 
z
M 3341 1997 
L 3341 0 
L 2766 0 
L 2766 531 
Q 2569 213 2275 61 
Q 1981 -91 1556 -91 
Q 1019 -91 701 211 
Q 384 513 384 1019 
Q 384 1609 779 1909 
Q 1175 2209 1959 2209 
L 2766 2209 
L 2766 2266 
Q 2766 2663 2505 2880 
Q 2244 3097 1772 3097 
Q 1472 3097 1187 3025 
Q 903 2953 641 2809 
L 641 3341 
Q 956 3463 1253 3523 
Q 1550 3584 1831 3584 
Q 2591 3584 2966 3190 
Q 3341 2797 3341 1997 
z
" id="DejaVuSans-61" transform="scale(0.015625)"/>
       <path d="M 3328 2828 
Q 3544 3216 3844 3400 
Q 4144 3584 4550 3584 
Q 5097 3584 5394 3201 
Q 5691 2819 5691 2113 
L 5691 0 
L 5113 0 
L 5113 2094 
Q 5113 2597 4934 2840 
Q 4756 3084 4391 3084 
Q 3944 3084 3684 2787 
Q 3425 2491 3425 1978 
L 3425 0 
L 2847 0 
L 2847 2094 
Q 2847 2600 2669 2842 
Q 2491 3084 2119 3084 
Q 1678 3084 1418 2786 
Q 1159 2488 1159 1978 
L 1159 0 
L 581 0 
L 581 3500 
L 1159 3500 
L 1159 2956 
Q 1356 3278 1631 3431 
Q 1906 3584 2284 3584 
Q 2666 3584 2933 3390 
Q 3200 3197 3328 2828 
z
" id="DejaVuSans-6d" transform="scale(0.015625)"/>
       <path d="M 1159 525 
L 1159 -1331 
L 581 -1331 
L 581 3500 
L 1159 3500 
L 1159 2969 
Q 1341 3281 1617 3432 
Q 1894 3584 2278 3584 
Q 2916 3584 3314 3078 
Q 3713 2572 3713 1747 
Q 3713 922 3314 415 
Q 2916 -91 2278 -91 
Q 1894 -91 1617 61 
Q 1341 213 1159 525 
z
M 3116 1747 
Q 3116 2381 2855 2742 
Q 2594 3103 2138 3103 
Q 1681 3103 1420 2742 
Q 1159 2381 1159 1747 
Q 1159 1113 1420 752 
Q 1681 391 2138 391 
Q 2594 391 2855 752 
Q 3116 1113 3116 1747 
z
" id="DejaVuSans-70" transform="scale(0.015625)"/>
       <path d="M 603 4863 
L 1178 4863 
L 1178 0 
L 603 0 
L 603 4863 
z
" id="DejaVuSans-6c" transform="scale(0.015625)"/>
       <path d="M 3597 1894 
L 3597 1613 
L 953 1613 
Q 991 1019 1311 708 
Q 1631 397 2203 397 
Q 2534 397 2845 478 
Q 3156 559 3463 722 
L 3463 178 
Q 3153 47 2828 -22 
Q 2503 -91 2169 -91 
Q 1331 -91 842 396 
Q 353 884 353 1716 
Q 353 2575 817 3079 
Q 1281 3584 2069 3584 
Q 2775 3584 3186 3129 
Q 3597 2675 3597 1894 
z
M 3022 2063 
Q 3016 2534 2758 2815 
Q 2500 3097 2075 3097 
Q 1594 3097 1305 2825 
Q 1016 2553 972 2059 
L 3022 2063 
z
" id="DejaVuSans-65" transform="scale(0.015625)"/>
       <path id="DejaVuSans-20" transform="scale(0.015625)"/>
       <path d="M 1259 4147 
L 1259 2394 
L 2053 2394 
Q 2494 2394 2734 2622 
Q 2975 2850 2975 3272 
Q 2975 3691 2734 3919 
Q 2494 4147 2053 4147 
L 1259 4147 
z
M 628 4666 
L 2053 4666 
Q 2838 4666 3239 4311 
Q 3641 3956 3641 3272 
Q 3641 2581 3239 2228 
Q 2838 1875 2053 1875 
L 1259 1875 
L 1259 0 
L 628 0 
L 628 4666 
z
" id="DejaVuSans-50" transform="scale(0.015625)"/>
       <path d="M 3809 666 
L 3809 1919 
L 2778 1919 
L 2778 2438 
L 4434 2438 
L 4434 434 
Q 4069 175 3628 42 
Q 3188 -91 2688 -91 
Q 1594 -91 976 548 
Q 359 1188 359 2328 
Q 359 3472 976 4111 
Q 1594 4750 2688 4750 
Q 3144 4750 3555 4637 
Q 3966 4525 4313 4306 
L 4313 3634 
Q 3963 3931 3569 4081 
Q 3175 4231 2741 4231 
Q 1884 4231 1454 3753 
Q 1025 3275 1025 2328 
Q 1025 1384 1454 906 
Q 1884 428 2741 428 
Q 3075 428 3337 486 
Q 3600 544 3809 666 
z
" id="DejaVuSans-47" transform="scale(0.015625)"/>
      </defs>
      <use xlink:href="#DejaVuSans-53"/>
      <use x="63.476562" xlink:href="#DejaVuSans-61"/>
      <use x="124.755859" xlink:href="#DejaVuSans-6d"/>
      <use x="222.167969" xlink:href="#DejaVuSans-70"/>
      <use x="285.644531" xlink:href="#DejaVuSans-6c"/>
      <use x="313.427734" xlink:href="#DejaVuSans-65"/>
      <use x="374.951172" xlink:href="#DejaVuSans-20"/>
      <use x="406.738281" xlink:href="#DejaVuSans-50"/>
      <use x="467.041016" xlink:href="#DejaVuSans-50"/>
      <use x="527.34375" xlink:href="#DejaVuSans-47"/>
     </g>
    </g>
    <g id="line2d_20">
     <path d="M 640.904375 398.374775 
L 680.904375 398.374775 
" style="fill:none;stroke:#ff7f0e;stroke-linecap:square;stroke-width:3;"/>
    </g>
    <g id="line2d_21"/>
    <g id="text_19">
     <!-- Half-cycle shifted PPG -->
     <g transform="translate(696.904375 405.374775)scale(0.2 -0.2)">
      <defs>
       <path d="M 628 4666 
L 1259 4666 
L 1259 2753 
L 3553 2753 
L 3553 4666 
L 4184 4666 
L 4184 0 
L 3553 0 
L 3553 2222 
L 1259 2222 
L 1259 0 
L 628 0 
L 628 4666 
z
" id="DejaVuSans-48" transform="scale(0.015625)"/>
       <path d="M 2375 4863 
L 2375 4384 
L 1825 4384 
Q 1516 4384 1395 4259 
Q 1275 4134 1275 3809 
L 1275 3500 
L 2222 3500 
L 2222 3053 
L 1275 3053 
L 1275 0 
L 697 0 
L 697 3053 
L 147 3053 
L 147 3500 
L 697 3500 
L 697 3744 
Q 697 4328 969 4595 
Q 1241 4863 1831 4863 
L 2375 4863 
z
" id="DejaVuSans-66" transform="scale(0.015625)"/>
       <path d="M 313 2009 
L 1997 2009 
L 1997 1497 
L 313 1497 
L 313 2009 
z
" id="DejaVuSans-2d" transform="scale(0.015625)"/>
       <path d="M 3122 3366 
L 3122 2828 
Q 2878 2963 2633 3030 
Q 2388 3097 2138 3097 
Q 1578 3097 1268 2742 
Q 959 2388 959 1747 
Q 959 1106 1268 751 
Q 1578 397 2138 397 
Q 2388 397 2633 464 
Q 2878 531 3122 666 
L 3122 134 
Q 2881 22 2623 -34 
Q 2366 -91 2075 -91 
Q 1284 -91 818 406 
Q 353 903 353 1747 
Q 353 2603 823 3093 
Q 1294 3584 2113 3584 
Q 2378 3584 2631 3529 
Q 2884 3475 3122 3366 
z
" id="DejaVuSans-63" transform="scale(0.015625)"/>
       <path d="M 2059 -325 
Q 1816 -950 1584 -1140 
Q 1353 -1331 966 -1331 
L 506 -1331 
L 506 -850 
L 844 -850 
Q 1081 -850 1212 -737 
Q 1344 -625 1503 -206 
L 1606 56 
L 191 3500 
L 800 3500 
L 1894 763 
L 2988 3500 
L 3597 3500 
L 2059 -325 
z
" id="DejaVuSans-79" transform="scale(0.015625)"/>
       <path d="M 2834 3397 
L 2834 2853 
Q 2591 2978 2328 3040 
Q 2066 3103 1784 3103 
Q 1356 3103 1142 2972 
Q 928 2841 928 2578 
Q 928 2378 1081 2264 
Q 1234 2150 1697 2047 
L 1894 2003 
Q 2506 1872 2764 1633 
Q 3022 1394 3022 966 
Q 3022 478 2636 193 
Q 2250 -91 1575 -91 
Q 1294 -91 989 -36 
Q 684 19 347 128 
L 347 722 
Q 666 556 975 473 
Q 1284 391 1588 391 
Q 1994 391 2212 530 
Q 2431 669 2431 922 
Q 2431 1156 2273 1281 
Q 2116 1406 1581 1522 
L 1381 1569 
Q 847 1681 609 1914 
Q 372 2147 372 2553 
Q 372 3047 722 3315 
Q 1072 3584 1716 3584 
Q 2034 3584 2315 3537 
Q 2597 3491 2834 3397 
z
" id="DejaVuSans-73" transform="scale(0.015625)"/>
       <path d="M 3513 2113 
L 3513 0 
L 2938 0 
L 2938 2094 
Q 2938 2591 2744 2837 
Q 2550 3084 2163 3084 
Q 1697 3084 1428 2787 
Q 1159 2491 1159 1978 
L 1159 0 
L 581 0 
L 581 4863 
L 1159 4863 
L 1159 2956 
Q 1366 3272 1645 3428 
Q 1925 3584 2291 3584 
Q 2894 3584 3203 3211 
Q 3513 2838 3513 2113 
z
" id="DejaVuSans-68" transform="scale(0.015625)"/>
       <path d="M 603 3500 
L 1178 3500 
L 1178 0 
L 603 0 
L 603 3500 
z
M 603 4863 
L 1178 4863 
L 1178 4134 
L 603 4134 
L 603 4863 
z
" id="DejaVuSans-69" transform="scale(0.015625)"/>
       <path d="M 1172 4494 
L 1172 3500 
L 2356 3500 
L 2356 3053 
L 1172 3053 
L 1172 1153 
Q 1172 725 1289 603 
Q 1406 481 1766 481 
L 2356 481 
L 2356 0 
L 1766 0 
Q 1100 0 847 248 
Q 594 497 594 1153 
L 594 3053 
L 172 3053 
L 172 3500 
L 594 3500 
L 594 4494 
L 1172 4494 
z
" id="DejaVuSans-74" transform="scale(0.015625)"/>
       <path d="M 2906 2969 
L 2906 4863 
L 3481 4863 
L 3481 0 
L 2906 0 
L 2906 525 
Q 2725 213 2448 61 
Q 2172 -91 1784 -91 
Q 1150 -91 751 415 
Q 353 922 353 1747 
Q 353 2572 751 3078 
Q 1150 3584 1784 3584 
Q 2172 3584 2448 3432 
Q 2725 3281 2906 2969 
z
M 947 1747 
Q 947 1113 1208 752 
Q 1469 391 1925 391 
Q 2381 391 2643 752 
Q 2906 1113 2906 1747 
Q 2906 2381 2643 2742 
Q 2381 3103 1925 3103 
Q 1469 3103 1208 2742 
Q 947 2381 947 1747 
z
" id="DejaVuSans-64" transform="scale(0.015625)"/>
      </defs>
      <use xlink:href="#DejaVuSans-48"/>
      <use x="75.195312" xlink:href="#DejaVuSans-61"/>
      <use x="136.474609" xlink:href="#DejaVuSans-6c"/>
      <use x="164.257812" xlink:href="#DejaVuSans-66"/>
      <use x="193.962891" xlink:href="#DejaVuSans-2d"/>
      <use x="230.046875" xlink:href="#DejaVuSans-63"/>
      <use x="285.027344" xlink:href="#DejaVuSans-79"/>
      <use x="344.207031" xlink:href="#DejaVuSans-63"/>
      <use x="399.1875" xlink:href="#DejaVuSans-6c"/>
      <use x="426.970703" xlink:href="#DejaVuSans-65"/>
      <use x="488.494141" xlink:href="#DejaVuSans-20"/>
      <use x="520.28125" xlink:href="#DejaVuSans-73"/>
      <use x="572.380859" xlink:href="#DejaVuSans-68"/>
      <use x="635.759766" xlink:href="#DejaVuSans-69"/>
      <use x="663.542969" xlink:href="#DejaVuSans-66"/>
      <use x="696.998047" xlink:href="#DejaVuSans-74"/>
      <use x="736.207031" xlink:href="#DejaVuSans-65"/>
      <use x="797.730469" xlink:href="#DejaVuSans-64"/>
      <use x="861.207031" xlink:href="#DejaVuSans-20"/>
      <use x="892.994141" xlink:href="#DejaVuSans-50"/>
      <use x="953.296875" xlink:href="#DejaVuSans-50"/>
      <use x="1013.599609" xlink:href="#DejaVuSans-47"/>
     </g>
    </g>
    <g id="line2d_22">
     <path d="M 640.904375 427.731025 
L 680.904375 427.731025 
" style="fill:none;stroke:#2ca02c;stroke-linecap:square;stroke-width:3;"/>
    </g>
    <g id="line2d_23"/>
    <g id="text_20">
     <!-- Full-cycle shifted PPG -->
     <g transform="translate(696.904375 434.731025)scale(0.2 -0.2)">
      <defs>
       <path d="M 628 4666 
L 3309 4666 
L 3309 4134 
L 1259 4134 
L 1259 2759 
L 3109 2759 
L 3109 2228 
L 1259 2228 
L 1259 0 
L 628 0 
L 628 4666 
z
" id="DejaVuSans-46" transform="scale(0.015625)"/>
       <path d="M 544 1381 
L 544 3500 
L 1119 3500 
L 1119 1403 
Q 1119 906 1312 657 
Q 1506 409 1894 409 
Q 2359 409 2629 706 
Q 2900 1003 2900 1516 
L 2900 3500 
L 3475 3500 
L 3475 0 
L 2900 0 
L 2900 538 
Q 2691 219 2414 64 
Q 2138 -91 1772 -91 
Q 1169 -91 856 284 
Q 544 659 544 1381 
z
M 1991 3584 
L 1991 3584 
z
" id="DejaVuSans-75" transform="scale(0.015625)"/>
      </defs>
      <use xlink:href="#DejaVuSans-46"/>
      <use x="52.019531" xlink:href="#DejaVuSans-75"/>
      <use x="115.398438" xlink:href="#DejaVuSans-6c"/>
      <use x="143.181641" xlink:href="#DejaVuSans-6c"/>
      <use x="170.964844" xlink:href="#DejaVuSans-2d"/>
      <use x="207.048828" xlink:href="#DejaVuSans-63"/>
      <use x="262.029297" xlink:href="#DejaVuSans-79"/>
      <use x="321.208984" xlink:href="#DejaVuSans-63"/>
      <use x="376.189453" xlink:href="#DejaVuSans-6c"/>
      <use x="403.972656" xlink:href="#DejaVuSans-65"/>
      <use x="465.496094" xlink:href="#DejaVuSans-20"/>
      <use x="497.283203" xlink:href="#DejaVuSans-73"/>
      <use x="549.382812" xlink:href="#DejaVuSans-68"/>
      <use x="612.761719" xlink:href="#DejaVuSans-69"/>
      <use x="640.544922" xlink:href="#DejaVuSans-66"/>
      <use x="674" xlink:href="#DejaVuSans-74"/>
      <use x="713.208984" xlink:href="#DejaVuSans-65"/>
      <use x="774.732422" xlink:href="#DejaVuSans-64"/>
      <use x="838.208984" xlink:href="#DejaVuSans-20"/>
      <use x="869.996094" xlink:href="#DejaVuSans-50"/>
      <use x="930.298828" xlink:href="#DejaVuSans-50"/>
      <use x="990.601562" xlink:href="#DejaVuSans-47"/>
     </g>
    </g>
   </g>
  </g>
 </g>
 <defs>
  <clipPath id="p9163a27b43">
   <rect height="395.2872" width="803.52" x="129.6" y="61.6032"/>
  </clipPath>
 </defs>
</svg>
